<?xml version="1.0" encoding="utf-8"?>
<!-- Generator: Adobe Illustrator 22.1.0, SVG Export Plug-In . SVG Version: 6.00 Build 0)  -->
<svg version="1.1" id="Layer_1" xmlns="http://www.w3.org/2000/svg" xmlns:xlink="http://www.w3.org/1999/xlink" x="0px" y="0px"
	 viewBox="0 0 45 45" style="enable-background:new 0 0 45 45;" xml:space="preserve">
<style type="text/css">
	.st0{clip-path:url(#SVGID_2_);fill:#D0B65B;}
	.st1{clip-path:url(#SVGID_2_);fill:#D0B65C;}
	.st2{clip-path:url(#SVGID_2_);fill:#D0B75C;}
	.st3{clip-path:url(#SVGID_2_);fill:#D0B75D;}
	.st4{clip-path:url(#SVGID_2_);fill:#D1B75D;}
	.st5{clip-path:url(#SVGID_2_);fill:#D1B75E;}
	.st6{clip-path:url(#SVGID_2_);fill:#D1B85E;}
	.st7{clip-path:url(#SVGID_2_);fill:#D1B85F;}
	.st8{clip-path:url(#SVGID_2_);fill:#D1B860;}
	.st9{clip-path:url(#SVGID_2_);fill:#D2B860;}
	.st10{clip-path:url(#SVGID_2_);fill:#D2B861;}
	.st11{clip-path:url(#SVGID_2_);fill:#D2B961;}
	.st12{clip-path:url(#SVGID_2_);fill:#D2B962;}
	.st13{clip-path:url(#SVGID_2_);fill:#D2B963;}
	.st14{clip-path:url(#SVGID_2_);fill:#D2BA63;}
	.st15{clip-path:url(#SVGID_2_);fill:#D2BA64;}
	.st16{clip-path:url(#SVGID_2_);fill:#D3BA64;}
	.st17{clip-path:url(#SVGID_2_);fill:#D3BA65;}
	.st18{clip-path:url(#SVGID_2_);fill:#D3BB65;}
	.st19{clip-path:url(#SVGID_2_);fill:#D3BB66;}
	.st20{clip-path:url(#SVGID_2_);fill:#D3BB67;}
	.st21{clip-path:url(#SVGID_2_);fill:#D4BC67;}
	.st22{clip-path:url(#SVGID_2_);fill:#D4BC68;}
	.st23{clip-path:url(#SVGID_2_);fill:#D4BC69;}
	.st24{clip-path:url(#SVGID_2_);fill:#D4BD6A;}
	.st25{clip-path:url(#SVGID_2_);fill:#D5BD6B;}
	.st26{clip-path:url(#SVGID_2_);fill:#D5BD6C;}
	.st27{clip-path:url(#SVGID_2_);fill:#D5BE6C;}
	.st28{clip-path:url(#SVGID_2_);fill:#D5BE6D;}
	.st29{clip-path:url(#SVGID_2_);fill:#D5BE6E;}
	.st30{clip-path:url(#SVGID_2_);fill:#D6BF6E;}
	.st31{clip-path:url(#SVGID_2_);fill:#D6BF6F;}
	.st32{clip-path:url(#SVGID_2_);fill:#D6BF70;}
	.st33{clip-path:url(#SVGID_2_);fill:#D6C070;}
	.st34{clip-path:url(#SVGID_2_);fill:#D6C071;}
	.st35{clip-path:url(#SVGID_2_);fill:#D7C072;}
	.st36{clip-path:url(#SVGID_2_);fill:#D7C173;}
	.st37{clip-path:url(#SVGID_2_);fill:#D7C174;}
	.st38{clip-path:url(#SVGID_2_);fill:#D7C175;}
	.st39{clip-path:url(#SVGID_2_);fill:#D8C275;}
	.st40{clip-path:url(#SVGID_2_);fill:#D8C276;}
	.st41{clip-path:url(#SVGID_2_);fill:#D8C377;}
	.st42{clip-path:url(#SVGID_2_);fill:#D8C378;}
	.st43{clip-path:url(#SVGID_2_);fill:#D9C379;}
	.st44{clip-path:url(#SVGID_2_);fill:#D9C47A;}
	.st45{clip-path:url(#SVGID_2_);fill:#D9C47B;}
	.st46{clip-path:url(#SVGID_2_);fill:#D9C57C;}
	.st47{clip-path:url(#SVGID_2_);fill:#DAC57D;}
	.st48{clip-path:url(#SVGID_2_);fill:#DAC67E;}
	.st49{clip-path:url(#SVGID_2_);fill:#DAC67F;}
	.st50{clip-path:url(#SVGID_2_);fill:#DBC780;}
	.st51{clip-path:url(#SVGID_2_);fill:#DBC781;}
	.st52{clip-path:url(#SVGID_2_);fill:#DBC883;}
	.st53{clip-path:url(#SVGID_2_);fill:#DCC884;}
	.st54{clip-path:url(#SVGID_2_);fill:#DCC985;}
	.st55{clip-path:url(#SVGID_2_);fill:#DCC986;}
	.st56{clip-path:url(#SVGID_2_);fill:#DDCA87;}
	.st57{clip-path:url(#SVGID_2_);fill:#DDCA89;}
	.st58{clip-path:url(#SVGID_2_);fill:#DDCB8A;}
	.st59{clip-path:url(#SVGID_2_);fill:#DECB8B;}
	.st60{clip-path:url(#SVGID_2_);fill:#DECC8D;}
	.st61{clip-path:url(#SVGID_2_);fill:#DFCD8E;}
	.st62{clip-path:url(#SVGID_2_);fill:#DFCD8F;}
	.st63{clip-path:url(#SVGID_2_);fill:#DFCE91;}
	.st64{clip-path:url(#SVGID_2_);fill:#E0CF92;}
	.st65{clip-path:url(#SVGID_2_);fill:#E0CF94;}
	.st66{clip-path:url(#SVGID_2_);fill:#E1D095;}
	.st67{clip-path:url(#SVGID_2_);fill:#E1D096;}
	.st68{clip-path:url(#SVGID_2_);fill:#E1D198;}
	.st69{clip-path:url(#SVGID_2_);fill:#E2D29A;}
	.st70{clip-path:url(#SVGID_2_);fill:#E2D39B;}
	.st71{clip-path:url(#SVGID_2_);fill:#E3D39D;}
	.st72{clip-path:url(#SVGID_2_);fill:#E3D49E;}
	.st73{clip-path:url(#SVGID_2_);fill:#E4D5A0;}
	.st74{clip-path:url(#SVGID_2_);fill:#E4D5A2;}
	.st75{clip-path:url(#SVGID_2_);fill:#E5D6A3;}
	.st76{clip-path:url(#SVGID_2_);fill:#E5D7A5;}
	.st77{clip-path:url(#SVGID_2_);fill:#E6D8A7;}
	.st78{clip-path:url(#SVGID_2_);fill:#E6D9A9;}
	.st79{clip-path:url(#SVGID_2_);fill:#E7D9AA;}
	.st80{clip-path:url(#SVGID_2_);fill:#E7DAAC;}
	.st81{clip-path:url(#SVGID_2_);fill:#E8DBAE;}
	.st82{clip-path:url(#SVGID_2_);fill:#E8DCB0;}
	.st83{clip-path:url(#SVGID_2_);fill:#E9DDB2;}
	.st84{clip-path:url(#SVGID_2_);fill:#E9DEB4;}
	.st85{clip-path:url(#SVGID_2_);fill:#EADEB6;}
	.st86{clip-path:url(#SVGID_2_);fill:#EBDFB8;}
	.st87{clip-path:url(#SVGID_2_);fill:#EBE0BA;}
	.st88{clip-path:url(#SVGID_2_);fill:#ECE1BC;}
	.st89{clip-path:url(#SVGID_2_);fill:#ECE2BE;}
	.st90{clip-path:url(#SVGID_2_);fill:#EDE3C0;}
	.st91{clip-path:url(#SVGID_2_);fill:#EEE4C2;}
	.st92{clip-path:url(#SVGID_2_);fill:#EEE5C4;}
	.st93{clip-path:url(#SVGID_2_);fill:#EFE6C7;}
	.st94{clip-path:url(#SVGID_2_);fill:#EFE7C9;}
	.st95{clip-path:url(#SVGID_2_);fill:#F0E8CB;}
	.st96{clip-path:url(#SVGID_2_);fill:#F1E9CD;}
	.st97{clip-path:url(#SVGID_2_);fill:#F1EAD0;}
	.st98{clip-path:url(#SVGID_2_);fill:#F2EBD2;}
	.st99{clip-path:url(#SVGID_2_);fill:#F3ECD4;}
	.st100{clip-path:url(#SVGID_2_);fill:#F3EDD7;}
	.st101{clip-path:url(#SVGID_2_);fill:#F4EED9;}
	.st102{clip-path:url(#SVGID_2_);fill:#F5EFDC;}
	.st103{clip-path:url(#SVGID_2_);fill:#F6F0DE;}
	.st104{clip-path:url(#SVGID_2_);fill:#F6F2E1;}
	.st105{clip-path:url(#SVGID_2_);fill:#F7F3E3;}
	.st106{clip-path:url(#SVGID_2_);fill:#F8F4E6;}
	.st107{clip-path:url(#SVGID_2_);fill:#F9F5E9;}
	.st108{clip-path:url(#SVGID_2_);fill:#F9F6EB;}
	.st109{clip-path:url(#SVGID_2_);fill:#FAF7EE;}
	.st110{clip-path:url(#SVGID_2_);fill:#FBF9F1;}
	.st111{clip-path:url(#SVGID_2_);fill:#FCFAF4;}
	.st112{clip-path:url(#SVGID_2_);fill:#FDFBF6;}
	.st113{clip-path:url(#SVGID_2_);fill:#FDFCF9;}
	.st114{clip-path:url(#SVGID_2_);fill:#FEFEFC;}
	.st115{clip-path:url(#SVGID_2_);fill:#FFFFFF;}
	.st116{fill:#632988;}
</style>
<g id="Profile">
	<g>
		<g>
			<defs>
				<circle id="SVGID_1_" cx="22.5" cy="22.5" r="21.9"/>
			</defs>
			<clipPath id="SVGID_2_">
				<use xlink:href="#SVGID_1_"  style="overflow:visible;"/>
			</clipPath>
			<rect x="0.6" y="0.6" class="st0" width="43.9" height="43.9"/>
			<circle class="st0" cx="22.5" cy="22.5" r="21.9"/>
			<circle class="st0" cx="22.5" cy="22.5" r="21.8"/>
			<circle class="st0" cx="22.5" cy="22.5" r="21.7"/>
			<circle class="st0" cx="22.5" cy="22.5" r="21.5"/>
			<circle class="st0" cx="22.5" cy="22.5" r="21.4"/>
			<circle class="st0" cx="22.5" cy="22.5" r="21.3"/>
			<circle class="st0" cx="22.5" cy="22.5" r="21.1"/>
			<circle class="st0" cx="22.5" cy="22.5" r="21"/>
			<circle class="st0" cx="22.5" cy="22.5" r="20.9"/>
			<circle class="st0" cx="22.5" cy="22.5" r="20.7"/>
			<circle class="st0" cx="22.5" cy="22.5" r="20.6"/>
			<circle class="st0" cx="22.5" cy="22.5" r="20.5"/>
			<circle class="st0" cx="22.5" cy="22.5" r="20.3"/>
			<circle class="st0" cx="22.5" cy="22.5" r="20.2"/>
			<circle class="st0" cx="22.5" cy="22.5" r="20.1"/>
			<circle class="st0" cx="22.5" cy="22.5" r="19.9"/>
			<circle class="st0" cx="22.5" cy="22.5" r="19.8"/>
			<circle class="st0" cx="22.5" cy="22.5" r="19.7"/>
			<circle class="st0" cx="22.5" cy="22.5" r="19.5"/>
			<circle class="st0" cx="22.5" cy="22.5" r="19.4"/>
			<circle class="st0" cx="22.5" cy="22.5" r="19.3"/>
			<circle class="st0" cx="22.5" cy="22.5" r="19.1"/>
			<circle class="st0" cx="22.5" cy="22.5" r="19"/>
			<circle class="st1" cx="22.5" cy="22.5" r="18.9"/>
			<circle class="st1" cx="22.5" cy="22.5" r="18.7"/>
			<circle class="st1" cx="22.5" cy="22.5" r="18.6"/>
			<circle class="st1" cx="22.5" cy="22.5" r="18.5"/>
			<circle class="st1" cx="22.5" cy="22.5" r="18.3"/>
			<circle class="st1" cx="22.5" cy="22.5" r="18.2"/>
			<circle class="st1" cx="22.5" cy="22.5" r="18.1"/>
			<circle class="st2" cx="22.5" cy="22.5" r="17.9"/>
			<circle class="st2" cx="22.5" cy="22.5" r="17.8"/>
			<circle class="st2" cx="22.5" cy="22.5" r="17.7"/>
			<circle class="st3" cx="22.5" cy="22.5" r="17.5"/>
			<circle class="st3" cx="22.5" cy="22.5" r="17.4"/>
			<circle class="st4" cx="22.5" cy="22.5" r="17.3"/>
			<circle class="st4" cx="22.5" cy="22.5" r="17.1"/>
			<circle class="st4" cx="22.5" cy="22.5" r="17"/>
			<circle class="st4" cx="22.5" cy="22.5" r="16.9"/>
			<circle class="st5" cx="22.5" cy="22.5" r="16.7"/>
			<circle class="st5" cx="22.5" cy="22.5" r="16.6"/>
			<circle class="st5" cx="22.5" cy="22.5" r="16.5"/>
			<circle class="st5" cx="22.5" cy="22.5" r="16.3"/>
			<circle class="st6" cx="22.5" cy="22.5" r="16.2"/>
			<circle class="st7" cx="22.5" cy="22.5" r="16.1"/>
			<circle class="st7" cx="22.5" cy="22.5" r="15.9"/>
			<circle class="st7" cx="22.5" cy="22.5" r="15.8"/>
			<circle class="st7" cx="22.5" cy="22.5" r="15.7"/>
			<circle class="st8" cx="22.5" cy="22.5" r="15.5"/>
			<circle class="st8" cx="22.5" cy="22.5" r="15.4"/>
			<circle class="st9" cx="22.5" cy="22.5" r="15.3"/>
			<circle class="st10" cx="22.5" cy="22.5" r="15.1"/>
			<circle class="st11" cx="22.5" cy="22.5" r="15"/>
			<circle class="st11" cx="22.5" cy="22.5" r="14.9"/>
			<circle class="st12" cx="22.5" cy="22.5" r="14.7"/>
			<circle class="st12" cx="22.5" cy="22.5" r="14.6"/>
			<circle class="st12" cx="22.5" cy="22.5" r="14.5"/>
			<circle class="st13" cx="22.5" cy="22.5" r="14.3"/>
			<circle class="st14" cx="22.5" cy="22.5" r="14.2"/>
			<circle class="st15" cx="22.5" cy="22.5" r="14.1"/>
			<circle class="st16" cx="22.5" cy="22.5" r="13.9"/>
			<circle class="st16" cx="22.5" cy="22.5" r="13.8"/>
			<circle class="st17" cx="22.5" cy="22.5" r="13.6"/>
			<circle class="st18" cx="22.5" cy="22.5" r="13.5"/>
			<circle class="st19" cx="22.5" cy="22.5" r="13.4"/>
			<circle class="st19" cx="22.5" cy="22.5" r="13.2"/>
			<circle class="st20" cx="22.5" cy="22.5" r="13.1"/>
			<circle class="st21" cx="22.5" cy="22.5" r="13"/>
			<circle class="st22" cx="22.5" cy="22.5" r="12.8"/>
			<circle class="st22" cx="22.5" cy="22.5" r="12.7"/>
			<circle class="st23" cx="22.5" cy="22.5" r="12.6"/>
			<circle class="st24" cx="22.5" cy="22.5" r="12.4"/>
			<circle class="st24" cx="22.5" cy="22.5" r="12.3"/>
			<circle class="st25" cx="22.5" cy="22.5" r="12.2"/>
			<circle class="st26" cx="22.5" cy="22.5" r="12"/>
			<circle class="st27" cx="22.5" cy="22.5" r="11.9"/>
			<circle class="st28" cx="22.5" cy="22.5" r="11.8"/>
			<circle class="st29" cx="22.5" cy="22.5" r="11.6"/>
			<circle class="st30" cx="22.5" cy="22.5" r="11.5"/>
			<circle class="st31" cx="22.5" cy="22.5" r="11.4"/>
			<circle class="st32" cx="22.5" cy="22.5" r="11.2"/>
			<circle class="st33" cx="22.5" cy="22.5" r="11.1"/>
			<circle class="st34" cx="22.5" cy="22.5" r="11"/>
			<circle class="st35" cx="22.5" cy="22.5" r="10.8"/>
			<circle class="st36" cx="22.5" cy="22.5" r="10.7"/>
			<circle class="st37" cx="22.5" cy="22.5" r="10.6"/>
			<circle class="st38" cx="22.5" cy="22.5" r="10.4"/>
			<circle class="st39" cx="22.5" cy="22.5" r="10.3"/>
			<circle class="st40" cx="22.5" cy="22.5" r="10.2"/>
			<circle class="st41" cx="22.5" cy="22.5" r="10"/>
			<circle class="st42" cx="22.5" cy="22.5" r="9.9"/>
			<circle class="st43" cx="22.5" cy="22.5" r="9.8"/>
			<circle class="st44" cx="22.5" cy="22.5" r="9.6"/>
			<circle class="st45" cx="22.5" cy="22.5" r="9.5"/>
			<circle class="st46" cx="22.5" cy="22.5" r="9.4"/>
			<circle class="st47" cx="22.5" cy="22.5" r="9.2"/>
			<circle class="st48" cx="22.5" cy="22.5" r="9.1"/>
			<circle class="st49" cx="22.5" cy="22.5" r="9"/>
			<circle class="st50" cx="22.5" cy="22.5" r="8.8"/>
			<circle class="st51" cx="22.5" cy="22.5" r="8.7"/>
			<circle class="st52" cx="22.5" cy="22.5" r="8.6"/>
			<circle class="st53" cx="22.5" cy="22.5" r="8.4"/>
			<circle class="st54" cx="22.5" cy="22.5" r="8.3"/>
			<circle class="st55" cx="22.5" cy="22.5" r="8.2"/>
			<circle class="st56" cx="22.5" cy="22.5" r="8"/>
			<circle class="st57" cx="22.5" cy="22.5" r="7.9"/>
			<circle class="st58" cx="22.5" cy="22.5" r="7.8"/>
			<circle class="st59" cx="22.5" cy="22.5" r="7.6"/>
			<circle class="st60" cx="22.5" cy="22.5" r="7.5"/>
			<circle class="st61" cx="22.5" cy="22.5" r="7.4"/>
			<circle class="st62" cx="22.5" cy="22.5" r="7.2"/>
			<circle class="st63" cx="22.5" cy="22.5" r="7.1"/>
			<circle class="st64" cx="22.5" cy="22.5" r="7"/>
			<circle class="st65" cx="22.5" cy="22.5" r="6.8"/>
			<circle class="st66" cx="22.5" cy="22.5" r="6.7"/>
			<circle class="st67" cx="22.5" cy="22.5" r="6.6"/>
			<circle class="st68" cx="22.5" cy="22.5" r="6.4"/>
			<circle class="st69" cx="22.5" cy="22.5" r="6.3"/>
			<circle class="st70" cx="22.5" cy="22.5" r="6.2"/>
			<circle class="st71" cx="22.5" cy="22.5" r="6"/>
			<circle class="st72" cx="22.5" cy="22.5" r="5.9"/>
			<circle class="st73" cx="22.5" cy="22.5" r="5.8"/>
			<circle class="st74" cx="22.5" cy="22.5" r="5.6"/>
			<circle class="st75" cx="22.5" cy="22.5" r="5.5"/>
			<circle class="st76" cx="22.5" cy="22.5" r="5.4"/>
			<circle class="st77" cx="22.5" cy="22.5" r="5.2"/>
			<circle class="st78" cx="22.5" cy="22.5" r="5.1"/>
			<circle class="st79" cx="22.5" cy="22.5" r="5"/>
			<circle class="st80" cx="22.5" cy="22.5" r="4.8"/>
			<circle class="st81" cx="22.5" cy="22.5" r="4.7"/>
			<circle class="st82" cx="22.5" cy="22.5" r="4.5"/>
			<circle class="st83" cx="22.5" cy="22.5" r="4.4"/>
			<circle class="st84" cx="22.5" cy="22.5" r="4.3"/>
			<circle class="st85" cx="22.5" cy="22.5" r="4.1"/>
			<circle class="st86" cx="22.5" cy="22.5" r="4"/>
			<circle class="st87" cx="22.5" cy="22.5" r="3.9"/>
			<circle class="st88" cx="22.5" cy="22.5" r="3.7"/>
			<circle class="st89" cx="22.5" cy="22.5" r="3.6"/>
			<circle class="st90" cx="22.5" cy="22.5" r="3.5"/>
			<circle class="st91" cx="22.5" cy="22.5" r="3.3"/>
			<circle class="st92" cx="22.5" cy="22.5" r="3.2"/>
			<circle class="st93" cx="22.5" cy="22.5" r="3.1"/>
			<circle class="st94" cx="22.5" cy="22.5" r="2.9"/>
			<circle class="st95" cx="22.5" cy="22.5" r="2.8"/>
			<circle class="st96" cx="22.5" cy="22.5" r="2.7"/>
			<circle class="st97" cx="22.5" cy="22.5" r="2.5"/>
			<circle class="st98" cx="22.5" cy="22.5" r="2.4"/>
			<circle class="st99" cx="22.5" cy="22.5" r="2.3"/>
			<circle class="st100" cx="22.5" cy="22.5" r="2.1"/>
			<circle class="st101" cx="22.5" cy="22.5" r="2"/>
			<circle class="st102" cx="22.5" cy="22.5" r="1.9"/>
			<circle class="st103" cx="22.5" cy="22.5" r="1.7"/>
			<circle class="st104" cx="22.5" cy="22.5" r="1.6"/>
			<circle class="st105" cx="22.5" cy="22.5" r="1.5"/>
			<circle class="st106" cx="22.5" cy="22.5" r="1.3"/>
			<circle class="st107" cx="22.5" cy="22.5" r="1.2"/>
			<circle class="st108" cx="22.5" cy="22.5" r="1.1"/>
			<circle class="st109" cx="22.5" cy="22.5" r="0.9"/>
			<circle class="st110" cx="22.5" cy="22.5" r="0.8"/>
			<circle class="st111" cx="22.5" cy="22.5" r="0.7"/>
			<circle class="st112" cx="22.5" cy="22.5" r="0.5"/>
			<circle class="st113" cx="22.5" cy="22.5" r="0.4"/>
			<circle class="st114" cx="22.5" cy="22.5" r="0.3"/>
			<circle class="st115" cx="22.5" cy="22.5" r="0.1"/>
		</g>
		<path class="st116" d="M22.5,45C10.1,45,0,34.9,0,22.5C0,10.1,10.1,0,22.5,0C34.9,0,45,10.1,45,22.5C45,34.9,34.9,45,22.5,45z
			 M22.5,1.1c-11.8,0-21.4,9.6-21.4,21.4s9.6,21.4,21.4,21.4s21.4-9.6,21.4-21.4S34.3,1.1,22.5,1.1z"/>
	</g>
	<g id="Oval">
		<path class="st116" d="M22.6,8.3c3.8,0,6.8,3.1,6.8,6.8S26.3,22,22.6,22s-6.8-3.1-6.8-6.8S18.8,8.3,22.6,8.3z"/>
		<path class="st116" d="M22.6,22.5c-4.1,0-7.4-3.3-7.4-7.4c0-4.1,3.3-7.4,7.4-7.4c4.1,0,7.4,3.3,7.4,7.4
			C29.9,19.2,26.6,22.5,22.6,22.5z M22.6,8.9c-3.5,0-6.3,2.8-6.3,6.3c0,3.5,2.8,6.3,6.3,6.3c3.5,0,6.3-2.8,6.3-6.3
			C28.8,11.7,26,8.9,22.6,8.9z"/>
	</g>
	<g id="Rectangle">
		<path class="st116" d="M14.3,24.7C10.8,24.7,8,27.6,8,31l0,0v4.6c0,0.9,0.7,1.7,1.7,1.7c0,0,0,0,0,0h25.8c0.9,0,1.7-0.7,1.7-1.7
			c0,0,0,0,0,0V31c0-3.5-2.8-6.3-6.3-6.3l0,0H14.3z"/>
		<path class="st116" d="M35.5,37.8C35.5,37.8,35.5,37.8,35.5,37.8H9.7c-1.2,0-2.2-1-2.2-2.2V31c0-3.8,3.1-6.8,6.8-6.8h16.6
			c3.8,0,6.8,3.1,6.8,6.8v4.6c0,0.6-0.2,1.2-0.7,1.6C36.6,37.6,36.1,37.8,35.5,37.8z M14.3,25.3c-3.2,0-5.7,2.6-5.7,5.7v4.6
			c0,0.6,0.5,1.1,1.1,1.1h25.8c0,0,0,0,0,0c0.3,0,0.6-0.1,0.8-0.3c0.2-0.2,0.3-0.5,0.3-0.8V31c0-3.2-2.6-5.7-5.7-5.7H14.3z"/>
	</g>
</g>
</svg>
