<?xml version="1.0" encoding="utf-8"?>
<!-- Generator: Adobe Illustrator 22.1.0, SVG Export Plug-In . SVG Version: 6.00 Build 0)  -->
<svg version="1.1" id="Layer_1" xmlns="http://www.w3.org/2000/svg" xmlns:xlink="http://www.w3.org/1999/xlink" x="0px" y="0px"
	 viewBox="0 0 433 124" style="enable-background:new 0 0 433 124;" xml:space="preserve">
<style type="text/css">
	.st0{fill:#FFFFFF;}
</style>
<g>
	<path class="st0" d="M45.3,123.9c0,0,43.8-28.2,44.7-53c0.9-25.1-25-33-37.3-23.3c-3,2.4-5.4,4.7-7.4,7v0.2
		c5,5.4,8.4,11.8,8.4,17.3c-0.1,6.2-4.3,10.2-8.4,10.5c-4.1-0.3-8.3-4.3-8.4-10.5c-0.1-5.5,3.3-11.9,8.4-17.3v-0.2
		c-2-2.3-4.4-4.6-7.4-7C25.6,37.9-0.3,45.9,0.6,71C1.5,95.7,45.3,123.9,45.3,123.9z"/>
	<path class="st0" d="M56.7,23.7C56.8,16.1,52.1,7.4,45.3,0c-6.9,7.4-11.5,16.1-11.4,23.7c0.1,5.4,2.4,9.5,5.5,12
		c-0.8-1.4-1.3-3.1-1.3-5.1C38,25.8,41,20.2,45.4,15.5c4.4,4.7,7.3,10.2,7.3,15.1c0,2-0.5,3.7-1.3,5.1
		C54.4,33.3,56.7,29.1,56.7,23.7z"/>
	<g>
		<g>
			<path class="st0" d="M102.1,94h1.8c0.8,0,1.2-0.5,1.3-1.3l2.7-34.3h8.1l8.7,20.1c1,2.4,2.1,5.6,2.1,5.6h0.1c0,0,1.1-3.2,2.1-5.6
				l8.7-20.1h8.1l2.7,34.3c0.1,0.8,0.5,1.3,1.3,1.3h1.8v6.6h-6.7c-2.8,0-3.7-1.2-4-4l-1.4-18.8c-0.2-2.8-0.1-6.5-0.1-6.5h-0.1
				c0,0-1.2,4.2-2.3,6.5l-7,15.6h-6.3l-7-15.6c-1.1-2.4-2.3-6.6-2.3-6.6h-0.1c0,0,0.2,3.8-0.1,6.6l-1.4,18.8c-0.2,2.9-1.2,4-4,4
				h-6.7V94z"/>
			<path class="st0" d="M160.1,106.7c2.1,0,3.9-1.2,5-3.9l1-2.3L156,77.7c-0.4-0.9-0.8-1.1-1.6-1.1h-0.9v-6.4h5c2.1,0,3.2,0.8,4,2.9
				l5.9,15.1c0.6,1.5,1.1,4,1.1,4h0.1c0,0,0.5-2.5,1-4l5.2-15.1c0.7-2.1,2-2.9,4-2.9h5.1v6.4H184c-0.9,0-1.4,0.2-1.7,1.1l-10.9,27.4
				c-2.1,5.5-6.4,7.9-10.9,7.9c-4.8,0-7.7-3.1-7.7-3.1l2.9-5.3C155.7,104.6,157.6,106.7,160.1,106.7z"/>
			<path class="st0" d="M191.5,65h-3.9v-6.6h18.9c7.7,0,13.1,4.8,13.1,12.7c0,7.6-5.2,10.8-7,11.1v0.1c0,0,1.3,0.6,2.1,2.1l4.1,8.1
				c0.7,1.2,1.7,1.4,3,1.4h0.8v6.6h-4.1c-3.1,0-4.5-0.5-5.9-3.1l-5.4-10.6c-0.9-1.7-1.8-2-4-2h-3.9v15.7h-7.8L191.5,65L191.5,65z
				 M205.5,78.2c3.9,0,6.2-2.4,6.2-6.7c0-4.2-2.3-6.5-6.1-6.5h-6.3v13.2H205.5z"/>
			<path class="st0" d="M240.1,69.5c8.7,0,13.4,6.4,13.4,14.4c0,0.9-0.2,2.8-0.2,2.8h-20.9c0.6,5.3,4.5,8.1,9.1,8.1
				c4.9,0,8.5-3.4,8.5-3.4l3.1,5.2c0,0-4.6,4.6-12.2,4.6c-10,0-16.3-7.2-16.3-15.9C224.7,76.1,231,69.5,240.1,69.5z M245.8,81.5
				c-0.1-3.6-2.6-6.1-5.7-6.1c-3.9,0-6.6,2.3-7.4,6.1H245.8z"/>
			<path class="st0" d="M260.9,90.9c0,0,3.9,4.5,9,4.5c2.3,0,4.1-1,4.1-3c0-4.3-16-4.2-16-14c0-6.1,5.5-8.9,11.8-8.9
				c4.1,0,10.6,1.4,10.6,6.3V79h-6.7v-1.5c0-1.4-2.1-2.1-3.8-2.1c-2.7,0-4.5,1-4.5,2.7c0,4.8,16.1,3.8,16.1,13.9
				c0,5.7-5.1,9.3-11.6,9.3c-8.3,0-12.6-5.4-12.6-5.4L260.9,90.9z"/>
			<path class="st0" d="M288.6,78c0-0.9-0.5-1.3-1.3-1.3H285v-6.4h6.7c2.8,0,3.8,1.2,3.8,2.9c0,0.7,0,1.2,0,1.2h0.1
				c0,0,2.6-4.8,9.6-4.8c8.2,0,13.5,6.5,13.5,15.9c0,9.6-5.9,15.9-13.9,15.9c-6,0-8.7-4-8.7-4H296c0,0,0.1,1.1,0.1,2.6v12.5h-7.5V78
				z M303.4,94.9c4.2,0,7.7-3.4,7.7-9.4c0-5.8-3.1-9.5-7.5-9.5c-3.9,0-7.6,2.9-7.6,9.6C295.9,90.3,298.4,94.9,303.4,94.9z"/>
			<path class="st0" d="M337.9,69.5c8.7,0,13.4,6.4,13.4,14.4c0,0.9-0.2,2.8-0.2,2.8h-20.9c0.6,5.3,4.5,8.1,9.1,8.1
				c4.9,0,8.5-3.4,8.5-3.4l3.1,5.2c0,0-4.6,4.6-12.2,4.6c-10,0-16.3-7.2-16.3-15.9C322.5,76.1,328.8,69.5,337.9,69.5z M343.6,81.5
				c-0.1-3.6-2.6-6.1-5.7-6.1c-3.9,0-6.6,2.3-7.4,6.1H343.6z"/>
			<path class="st0" d="M372.2,69.5c3.9,0,11,1.6,11,6.8v3.6h-6.7v-1.7c0-1.7-2.5-2.4-4.3-2.4c-5.2,0-9,4-9,9.4
				c0,6.2,4.6,9.3,9.4,9.3c5.2,0,9-4.1,9-4.1l3.1,5.2c0,0-4.5,5.5-12.8,5.5c-10,0-16.4-7.1-16.4-15.9
				C355.6,76.8,361.8,69.5,372.2,69.5z"/>
			<path class="st0" d="M390.8,76.3h-3.9v-6h4.1V62h7.4v8.3h6.9v6h-6.9v12.2c0,5,3.9,5.7,6,5.7c0.8,0,1.4-0.1,1.4-0.1v6.6
				c0,0-1,0.2-2.3,0.2c-4.2,0-12.6-1.2-12.6-11.4V76.3H390.8z"/>
			<path class="st0" d="M412.8,90.9c0,0,3.9,4.5,9,4.5c2.3,0,4.1-1,4.1-3c0-4.3-16-4.2-16-14c0-6.1,5.5-8.9,11.8-8.9
				c4.1,0,10.6,1.4,10.6,6.3V79h-6.7v-1.5c0-1.4-2.1-2.1-3.8-2.1c-2.7,0-4.5,1-4.5,2.7c0,4.8,16.1,3.8,16.1,13.9
				c0,5.7-5.1,9.3-11.6,9.3c-8.3,0-12.6-5.4-12.6-5.4L412.8,90.9z"/>
		</g>
	</g>
</g>
</svg>
