<?xml version="1.0" encoding="utf-8"?>
<!-- Generator: Adobe Illustrator 22.1.0, SVG Export Plug-In . SVG Version: 6.00 Build 0)  -->
<svg version="1.1" id="Layer_1" xmlns="http://www.w3.org/2000/svg" xmlns:xlink="http://www.w3.org/1999/xlink" x="0px" y="0px"
	 viewBox="0 0 78.8 80.6" style="enable-background:new 0 0 78.8 80.6;" xml:space="preserve">
<style type="text/css">
	.st0{fill:#FFFFFF;}
	.st1{fill:#FCFCFC;}
</style>
<title>fundraiser created by copy2</title>
<g id="Fundraiser-created-by-Copy">
	<g id="Group-2">
		<g id="Rectangle">
			<path class="st0" d="M55.3,80.6L55.3,80.6L7,80.5c-1.9,0-3.6-0.7-5-2.1c-1.3-1.3-2.1-3.1-2.1-5L0.1,7c0-3.9,3.2-7,7-7l0,0l0,0
				l48.3,0.1c3.9,0,7,3.2,7,7.1l-0.1,66.4c0,1.9-0.7,3.6-2.1,5C59,79.9,57.2,80.6,55.3,80.6z M7.2,6c-0.6,0-1,0.5-1,1L6,73.5
				c0,0.4,0.2,0.6,0.3,0.7c0.1,0.1,0.3,0.3,0.7,0.3l48.3,0.1l0,0c0.4,0,0.6-0.2,0.7-0.3c0.1-0.1,0.3-0.3,0.3-0.7l0.1-66.4
				c0-0.6-0.5-1-1-1L7.2,6L7.2,6z"/>
		</g>
		<g>
			<path class="st0" d="M49.4,17.8l-37.3-0.1L4.2,2l54.4,0.1L49.4,17.8z M15.8,11.7H46l2.1-3.6H14L15.8,11.7z"/>
		</g>
	</g>
</g>
<path class="st1" d="M71.2,12.5L27.9,55.8V62l5.7-0.4L77,18.3L71.2,12.5z"/>
<path class="st0" d="M26.6,63.3v-8l44.6-44.6l7.6,7.5L34.1,62.9L26.6,63.3z M29.1,56.3v4.4l4-0.2l42.2-42.2l-4.1-4.1L29.1,56.3z"/>
<path class="st1" d="M71.2,23.5l-4.9-5.2"/>
<rect x="67.5" y="16.2" transform="matrix(0.7277 -0.6859 0.6859 0.7277 4.3578 52.8475)" class="st0" width="2.5" height="9.5"/>
</svg>
